<svg width="30" height="30" viewBox="0 0 30 30" fill="none" xmlns="http://www.w3.org/2000/svg">
<path fill-rule="evenodd" clip-rule="evenodd" d="M2 0C0.895432 0 0 0.895508 0 2V28C0 29.1045 0.895432 30 2 30H28C29.1046 30 30 29.1045 30 28V2C30 0.895508 29.1046 0 28 0H2Z" fill="#70ABDC"/>
<path d="M6.79157 13.7797L21.8678 8.06988C22.5675 7.82157 23.1787 8.23756 22.9519 9.27687L22.9532 9.27559L20.3862 21.1548C20.196 21.997 19.6865 22.2018 18.9737 21.805L15.0646 18.975L13.1791 20.7593C12.9706 20.9641 12.7947 21.1369 12.3908 21.1369L12.6683 17.2292L19.9132 10.8C20.2286 10.5274 19.8429 10.3738 19.4272 10.6451L10.474 16.1822L6.61435 14.9995C5.77649 14.7384 5.75825 14.1765 6.79157 13.7797Z" fill="white"/>
</svg>
