<svg width="30" height="30" viewBox="0 0 30 30" fill="none" xmlns="http://www.w3.org/2000/svg">
<path fill-rule="evenodd" clip-rule="evenodd" d="M2 0C0.895432 0 0 0.895508 0 2V28C0 29.1045 0.895432 30 2 30H28C29.1046 30 30 29.1045 30 28V2C30 0.895508 29.1046 0 28 0H2Z" fill="#70ABDC"/>
<path fill-rule="evenodd" clip-rule="evenodd" d="M22.086 7.90649C20.2059 6.0332 17.7056 5.0011 15.0418 5C9.55291 5 5.08574 9.44568 5.08353 14.9098C5.08279 16.6565 5.54129 18.3616 6.41277 19.8645L5 25L10.279 23.6218C11.7336 24.4115 13.3712 24.8276 15.0378 24.8281H15.0419C20.5302 24.8281 24.9979 20.3821 25 14.9177C25.0011 12.2695 23.9662 9.77966 22.086 7.90649ZM15.0418 23.1544H15.0384C13.5533 23.1538 12.0967 22.7566 10.8257 22.0062L10.5236 21.8276L7.39096 22.6455L8.22711 19.6058L8.03025 19.2942C7.2017 17.9827 6.76418 16.4668 6.76491 14.9104C6.76663 10.3688 10.4797 6.67383 15.0451 6.67383C17.2559 6.67456 19.3341 7.53247 20.8967 9.08948C22.4594 10.6465 23.3195 12.7161 23.3187 14.9171C23.3168 19.4591 19.6039 23.1544 15.0418 23.1544ZM19.5819 16.9851C19.3331 16.8611 18.1097 16.2622 17.8816 16.1794C17.6537 16.0968 17.4876 16.0557 17.3219 16.3035C17.1559 16.5513 16.6792 17.1091 16.534 17.2743C16.3887 17.4396 16.2437 17.4603 15.9949 17.3363C15.746 17.2124 14.9443 16.9508 13.9938 16.1072C13.2542 15.4506 12.7549 14.6396 12.6097 14.3918C12.4647 14.1438 12.6084 14.0227 12.7188 13.8865C12.9882 13.5536 13.2579 13.2046 13.3408 13.0394C13.4239 12.8741 13.3823 12.7295 13.32 12.6056C13.2579 12.4817 12.7603 11.2628 12.553 10.7668C12.3508 10.2842 12.1459 10.3494 11.9931 10.3418C11.8481 10.3346 11.6821 10.3331 11.5162 10.3331C11.3503 10.3331 11.0807 10.395 10.8526 10.6431C10.6246 10.891 9.98185 11.49 9.98185 12.7089C9.98185 13.9277 10.8734 15.1052 10.9978 15.2705C11.1222 15.4358 12.7524 17.937 15.2484 19.0095C15.842 19.2649 16.3054 19.4171 16.6669 19.5313C17.263 19.7197 17.8053 19.6931 18.2341 19.6294C18.7122 19.5582 19.7061 19.0303 19.9136 18.4519C20.1209 17.8734 20.1209 17.3777 20.0586 17.2743C19.9966 17.171 19.8306 17.1091 19.5819 16.9851Z" fill="white"/>
</svg>
